<svg width="17" height="17" viewBox="0 0 17 17" fill="none" xmlns="http://www.w3.org/2000/svg">
<path d="M6.80009 1.69937V7.64937C6.80009 8.10007 6.97913 8.53231 7.29782 8.85101C7.61651 9.1697 8.04876 9.34874 8.49946 9.34874C8.95016 9.34874 9.3824 9.1697 9.70109 8.85101C10.0198 8.53231 10.1988 8.10007 10.1988 7.64937V3.69089C11.2418 4.05861 12.1371 4.75537 12.7497 5.67617C13.3622 6.59698 13.6589 7.69193 13.595 8.79602C13.5311 9.90012 13.1101 10.9535 12.3954 11.7975C11.6807 12.6415 10.711 13.2303 9.63256 13.4753C8.55408 13.7202 7.42521 13.608 6.41607 13.1555C5.40692 12.703 4.57218 11.9348 4.03763 10.9667C3.50309 9.99848 3.2977 8.88279 3.45242 7.78772C3.60715 6.69266 4.1136 5.67755 4.89546 4.89537C5.20905 4.57522 5.38365 4.14426 5.38132 3.69611C5.379 3.24797 5.19995 2.81884 4.88306 2.50195C4.56617 2.18506 4.13704 2.00601 3.6889 2.00369C3.24076 2.00137 2.8098 2.17597 2.48964 2.48956C1.09908 3.8801 0.23369 5.7098 0.0409408 7.66688C-0.151809 9.62395 0.340004 11.5873 1.43258 13.2224C2.52515 14.8575 4.15088 16.0632 6.03276 16.634C7.91464 17.2049 9.93622 17.1055 11.7531 16.3529C13.5699 15.6003 15.0695 14.241 15.9965 12.5066C16.9235 10.7722 17.2204 8.77008 16.8366 6.84134C16.4529 4.91259 15.4122 3.17658 13.892 1.92911C12.3718 0.681629 10.466 -0.000128626 8.49946 1.82026e-08C8.04876 1.82026e-08 7.61651 0.17904 7.29782 0.497734C6.97913 0.816428 6.80009 1.24867 6.80009 1.69937Z" fill="#4678EB"/>
</svg>
